<?xml version="1.0" standalone="no"?>
<!DOCTYPE svg PUBLIC "-//W3C//DTD SVG 20010904//EN"
 "http://www.w3.org/TR/2001/REC-SVG-20010904/DTD/svg10.dtd">
<svg version="1.0" xmlns="http://www.w3.org/2000/svg"
 width="1080.000000pt" height="1080.000000pt" viewBox="0 0 1080.000000 1080.000000"
 preserveAspectRatio="xMidYMid meet">
<metadata>
Created by potrace 1.14, written by Peter Selinger 2001-2017
</metadata>
<g transform="translate(0.000000,1080.000000) scale(0.100000,-0.100000)"
fill="#000000" stroke="none">
<path d="M0 5400 l0 -5400 5400 0 5400 0 0 5400 0 5400 -5400 0 -5400 0 0
-5400z m6774 1636 c171 -51 299 -124 473 -269 99 -82 275 -266 267 -278 -2 -5
-107 -95 -232 -200 -125 -106 -234 -198 -243 -205 -13 -12 -28 -1 -112 80
-219 211 -395 281 -576 230 -175 -49 -248 -211 -165 -365 40 -73 167 -197 395
-383 642 -528 762 -647 882 -874 92 -175 124 -326 114 -543 -12 -281 -108
-493 -305 -680 -175 -166 -385 -256 -672 -289 -216 -25 -494 23 -685 118 -219
109 -430 327 -584 606 -18 32 -31 59 -29 61 11 10 570 345 576 345 4 0 20 -23
36 -52 74 -132 187 -264 276 -325 155 -104 366 -122 520 -43 57 29 133 103
160 156 21 42 25 63 25 144 0 178 -46 237 -473 604 -515 441 -641 565 -772
756 -75 110 -124 212 -149 310 -98 385 69 774 424 986 82 50 221 105 313 125
72 15 119 18 267 15 159 -3 190 -7 269 -30z m-1686 -393 l-3 -338 -332 -3
-333 -2 -2 -1478 -3 -1477 -345 0 -345 0 -3 1477 -2 1478 -323 2 -322 3 -3
338 -2 337 1010 0 1010 0 -2 -337z"/>
</g>
</svg>
